# xmcd
#
# Track frame offsets:
#	150
#	29025
#	48375
#	66375
#	84150
#	107250
#	128925
#	145800
#	163275
#	180825
#	201525
#	218475
#	234675
#	253275
#	270900
#	289425
#	306750
#	322500
#
# Disc length: 4502
#
# Revision: 2
# Processed by: cddbd v1.5.1PL0 Copyright (c) Steve Scherf et al.
# Submitted via: EasyCDDAExtractor 4.5.0.2
# Normalized: r0:TDELIM( - ),TSWAP
#
DISCID=06119412
DTITLE=Diaforoi - Gold Ballads
DYEAR=1995
DGENRE=Ballad
TTITLE0=MICHAEL JACKSON - Heal The World
TTITLE1=MARIAH CAREY - Hero
TTITLE2=ROD STEWART - Have I told You Lately
TTITLE3=REDNEX - Wish You Were Here
TTITLE4=HOOTIE and THE BLOWFISH - Let Her Cry
TTITLE5=SEAL - Kiss From A rose
TTITLE6=ALPHAVILLE - Forever Yung
TTITLE7=DUSTY SPINGFIELD and DARYL HALL - Wherever Would I Be
TTITLE8=COCK ROBIN - The Promise You Made
TTITLE9=RANDY CRAWFORD - Holding Back The Years
TTITLE10=PORTRAIT - How Deep Is Your Love
TTITLE11=MIKE and THE MECHANICS - Over My Shoulder
TTITLE12=TOTO - 2 Hearts
TTITLE13=CRASH TEST DUMMIES - Mmm Mmm Mmm Mmm
TTITLE14=SOPHIE B. HAWKINS - As I Lay Me Down
TTITLE15=BLESSID UNION OF SOULS - I believe
TTITLE16=BETTE MIDLER - The Rose
TTITLE17=REO SPEEDWAGON - Keep On Loving You
EXTD=
EXTT0=
EXTT1=
EXTT2=
EXTT3=
EXTT4=
EXTT5=
EXTT6=
EXTT7=
EXTT8=
EXTT9=
EXTT10=
EXTT11=
EXTT12=
EXTT13=
EXTT14=
EXTT15=
EXTT16=
EXTT17=
PLAYORDER=
